<svg width="36" height="36" viewBox="0 0 36 36" fill="none" xmlns="http://www.w3.org/2000/svg">
<path d="M24.7763 18L34.9396 7.83664C36.1868 6.58945 36.1868 4.56734 34.9396 3.31914L32.6809 1.06039C31.4337 -0.186797 29.4116 -0.186797 28.1634 1.06039L18 11.2238L7.83664 1.06039C6.58945 -0.186797 4.56734 -0.186797 3.31914 1.06039L1.06039 3.31914C-0.186797 4.56633 -0.186797 6.58844 1.06039 7.83664L11.2238 18L1.06039 28.1634C-0.186797 29.4105 -0.186797 31.4327 1.06039 32.6809L3.31914 34.9396C4.56633 36.1868 6.58945 36.1868 7.83664 34.9396L18 24.7763L28.1634 34.9396C29.4105 36.1868 31.4337 36.1868 32.6809 34.9396L34.9396 32.6809C36.1868 31.4337 36.1868 29.4116 34.9396 28.1634L24.7763 18Z" fill="#F85858"/>
</svg>
